<?xml version="1.0" standalone="no"?>
<!DOCTYPE svg PUBLIC "-//W3C//DTD SVG 20010904//EN"
 "http://www.w3.org/TR/2001/REC-SVG-20010904/DTD/svg10.dtd">
<svg version="1.0" xmlns="http://www.w3.org/2000/svg"
 width="436.000000pt" height="436.000000pt" viewBox="0 0 436.000000 436.000000"
 preserveAspectRatio="xMidYMid meet">

<g transform="translate(0.000000,436.000000) scale(0.100000,-0.100000)"
fill="#000000" stroke="none">
<path d="M1920 4340 c-905 -119 -1620 -747 -1845 -1620 -41 -156 -75 -403 -75
-538 0 -228 62 -556 147 -782 231 -612 732 -1090 1359 -1295 115 -38 317 -82
384 -84 25 0 79 -5 120 -11 243 -31 625 21 915 126 107 39 308 135 390 187
218 136 462 359 603 549 234 314 371 658 422 1058 25 195 25 305 0 500 -63
493 -261 912 -595 1259 -351 365 -795 585 -1315 651 -186 24 -328 24 -510 0z
m-518 -806 c95 -49 207 -190 408 -513 46 -74 86 -129 87 -124 2 6 -29 103 -70
215 -109 301 -112 315 -66 379 19 27 83 59 120 59 45 0 95 -38 140 -107 106
-159 210 -361 262 -504 39 -106 60 -151 89 -188 35 -46 191 -211 199 -211 4 0
20 21 35 48 53 91 154 241 204 303 66 82 108 111 167 116 61 5 93 -12 116 -60
41 -82 -8 -200 -223 -542 -129 -207 -148 -241 -134 -254 12 -12 46 11 347 241
252 192 354 258 399 258 51 0 138 -84 138 -133 0 -12 -9 -40 -21 -63 -20 -42
-65 -82 -626 -560 -123 -105 -49 -90 443 90 223 81 233 83 289 62 84 -32 128
-115 95 -177 -31 -57 -239 -169 -465 -249 -280 -99 -315 -113 -326 -127 -33
-39 32 -40 296 -3 214 31 289 35 325 20 62 -26 81 -124 35 -178 -51 -60 -423
-174 -658 -202 -132 -15 -179 -33 -335 -128 -193 -118 -288 -149 -422 -139
-241 17 -501 203 -606 432 l-27 58 -196 -9 c-321 -15 -399 -12 -447 13 -45 24
-71 58 -80 103 -26 125 139 223 436 260 98 13 160 31 160 49 0 19 -83 150
-128 201 -24 28 -63 62 -88 76 -24 14 -142 59 -261 99 -465 156 -573 214 -604
328 -28 104 44 180 171 180 86 0 182 -27 524 -147 88 -31 161 -54 163 -52 4 4
-195 177 -362 316 -200 165 -245 218 -245 287 0 84 54 158 123 170 76 12 113
-9 419 -239 161 -121 306 -231 322 -245 16 -13 30 -22 33 -20 4 5 -68 124
-207 342 -150 234 -154 243 -154 305 1 65 20 105 69 149 41 36 87 41 137 15z"/>
<path d="M1307 3479 c-26 -15 -47 -63 -47 -110 0 -48 10 -68 143 -274 210
-326 253 -408 230 -443 -26 -41 -60 -21 -413 245 -357 268 -386 286 -443 264
-31 -12 -57 -58 -57 -99 0 -47 57 -105 315 -323 351 -295 364 -309 316 -353
-19 -17 -23 -17 -103 7 -46 14 -161 53 -256 86 -326 115 -439 135 -496 90 -43
-34 -32 -110 24 -157 51 -44 261 -128 568 -228 207 -67 269 -104 349 -209 63
-83 113 -174 113 -207 0 -60 -56 -88 -225 -112 -170 -24 -279 -59 -339 -109
-23 -19 -30 -33 -30 -60 0 -84 65 -104 297 -88 89 6 205 11 256 11 92 0 93 0
86 23 -4 12 -9 72 -12 134 -6 125 9 250 57 463 16 69 42 206 60 305 55 320 64
352 120 399 56 46 134 27 169 -42 43 -86 52 -187 37 -404 -8 -112 -7 -130 8
-153 20 -30 34 -31 117 -4 191 62 257 117 362 301 l27 46 -113 120 c-119 126
-158 187 -197 307 -32 96 -88 213 -177 368 -119 208 -142 230 -208 203 -53
-23 -59 -44 -35 -131 12 -42 36 -112 54 -158 59 -145 106 -295 106 -336 0 -29
-6 -44 -21 -54 -44 -32 -69 -5 -224 245 -145 233 -262 382 -338 429 -36 21
-54 23 -80 8z"/>
</g>
</svg>
